<?xml version="1.0" encoding="utf-8"?>
<!-- Generator: Adobe Illustrator 21.0.0, SVG Export Plug-In . SVG Version: 6.00 Build 0)  -->
<svg version="1.1" id="Layer_1" xmlns="http://www.w3.org/2000/svg" xmlns:xlink="http://www.w3.org/1999/xlink" x="0px" y="0px"
	 viewBox="0 0 42 42" style="enable-background:new 0 0 42 42;" xml:space="preserve">
<style type="text/css">
	.st0{fill:#475993;}
</style>
<path class="st0" d="M36.3,0H5.7C2.5,0,0,2.5,0,5.7v30.7C0,39.5,2.5,42,5.7,42h15.1l0-15h-3.9c-0.5,0-0.9-0.4-0.9-0.9l0-4.8
	c0-0.5,0.4-0.9,0.9-0.9h3.9v-4.7c0-5.4,3.3-8.4,8.2-8.4h4c0.5,0,0.9,0.4,0.9,0.9v4.1c0,0.5-0.4,0.9-0.9,0.9l-2.4,0
	c-2.6,0-3.1,1.3-3.1,3.1v4h5.8c0.6,0,1,0.5,0.9,1l-0.6,4.8C33.4,26.6,33,27,32.5,27h-5.2l0,15h9c3.1,0,5.7-2.5,5.7-5.7V5.7
	C42,2.5,39.5,0,36.3,0z"/>
</svg>
