<?xml version="1.0" encoding="utf-8"?>
<!-- Generator: Adobe Illustrator 21.0.0, SVG Export Plug-In . SVG Version: 6.00 Build 0)  -->
<svg version="1.1" id="Capa_1" xmlns="http://www.w3.org/2000/svg"  x="0px" y="0px"
	 viewBox="0 0 512 512" style="enable-background:new 0 0 512 512;" xml:space="preserve">
<style type="text/css">
	.st0{fill:#FFFFFF;}
</style>
<g>
	<g>
		<g>
			<path class="st0" d="M504.8,80.8H504c0-29.6-23.2-52.8-52.8-52.8H60.8C31.2,28,8,51.2,8,80.8v246.4C8,356.8,31.2,380,60.8,380
				h141.6l-12,56H136c-4.8,0-8,3.2-8,8v32c0,4.8,3.2,8,8,8h240c4.8,0,8-3.2,8-8v-32c0-4.8-3.2-8-8-8h-53.6l-12-56H452
				c28.8,0,52.8-23.2,52.8-52.8V80.8z M368,452v16H144v-16H368z M206.4,436l12-56h75.2l12,56H206.4z M488,327.2
				c0,20-16.8,36.8-36.8,36.8H60.8c-20,0-36.8-16.8-36.8-36.8V300h464V327.2z M488,284H24V80.8C24,60.8,40.8,44,60.8,44h390.4
				c20,0,36.8,16.8,36.8,36.8L488,284L488,284z"/>
			<circle class="st0" cx="256" cy="332" r="16"/>
			<rect x="376" y="76" class="st0" width="16" height="16"/>
			<rect x="408" y="76" class="st0" width="16" height="16"/>
			<rect x="440" y="76" class="st0" width="16" height="16"/>
			<rect x="408" y="108" class="st0" width="16" height="16"/>
			<rect x="440" y="108" class="st0" width="16" height="16"/>
			<rect x="296" y="236" class="st0" width="160" height="16"/>
			<rect x="320" y="204" class="st0" width="136" height="16"/>
			<rect x="344" y="172" class="st0" width="112" height="16"/>
			<rect x="440" y="140" class="st0" width="16" height="16"/>
			<path class="st0" d="M260,140.8c-2.4-1.6-5.6-1.6-8,0l-36,18.4V148c0-4.8-3.2-8-8-8h-40.8c0.8-2.4,0.8-5.6,0.8-8
				c0-31.2-24.8-56-56-56s-56,24.8-56,56c0,28,20.8,51.2,48,55.2V244c0,4.8,3.2,8,8,8h96c4.8,0,8-3.2,8-8v-11.2l36,18.4
				c1.6,0.8,2.4,0.8,4,0.8c4.8,0,8-3.2,8-8v-96C264,145.6,262.4,142.4,260,140.8z M104,148v23.2c-21.6-4-36-25.6-31.2-47.2
				c4-18.4,20-32,39.2-32c22.4,0,40,17.6,40,40c0,2.4,0,5.6-0.8,8H112C107.2,140,104,143.2,104,148z M144,156
				c-5.6,8-14.4,13.6-24,15.2V156H144z M200,207.2L177.6,196l22.4-11.2V207.2z M200,167.2l-44,21.6c-2.4,1.6-4,4-4,7.2
				s1.6,5.6,4,7.2l44,21.6V236h-80v-48.8c18.4-2.4,34.4-14.4,42.4-31.2H200V167.2z M248,231.2l-32-16v-38.4l32-16V231.2z"/>
		</g>
	</g>
</g>
</svg>
