<?xml version="1.0" encoding="utf-8"?>
<!-- Generator: Adobe Illustrator 21.0.0, SVG Export Plug-In . SVG Version: 6.00 Build 0)  -->
<svg version="1.1" id="Capa_1" xmlns="http://www.w3.org/2000/svg"  x="0px" y="0px"
	 viewBox="0 0 512 512" style="enable-background:new 0 0 512 512;" xml:space="preserve">
<style type="text/css">
	.st0{fill:#808080;}
</style>
<g>
	<path class="st0" d="M255.8,470C137.9,470,42,374.1,42,256.2S137.9,42.4,255.8,42.4s213.8,95.9,213.8,213.8S373.7,470,255.8,470z
		 M255.8,55.4C145,55.4,55,145.5,55,256.2S145,457,255.8,457s200.8-90,200.8-200.8S366.5,55.4,255.8,55.4z"/>
	<path class="st0" d="M255.8,470c-44.5,0-87.3-13.7-123.7-39.6c-1.9-1.4-3-3.8-2.7-6.1c0.3-2.4,1.9-4.4,4.2-5.2
		c53.7-19.9,62.4-36,62.4-67c0-8.2-1.8-10.9-5.2-15.7c-4.4-6.4-10.4-15.2-14.6-38.1c-0.6-3.3-1.2-3.6-4.1-5
		c-7.9-3.8-15.1-9.2-17-34.1c0-12,4.1-18.7,7.6-22.1c-0.8-4.3-2-11.6-3.1-19.7c-5.9-36-6.1-80,44.5-100.5
		c44.1-17.9,79.3-8.1,90.4,3.5c7.8,0.2,28,2.3,42.1,18.6c21.6,25.1,14.7,82.4,12.4,98c3.4,3.4,7.6,9.9,7.6,21.7
		c-1.9,25.3-9.1,30.8-17,34.5c-3,1.4-3.5,1.7-4.1,5c-4.2,22.9-10.2,31.7-14.6,38.1c-3.3,4.9-5.2,7.6-5.2,15.7
		c0,30.9,8.7,47.1,62.4,67c2.3,0.8,3.9,2.8,4.2,5.2c0.3,2.4-0.7,4.7-2.7,6.1C343.1,456.3,300.3,470,255.8,470z M149.8,426.6
		c31.9,20,68.3,30.4,106,30.4s74.1-10.5,106-30.4c-45-18.5-59.1-37.1-59.1-74.6c0-12.2,3.6-17.5,7.4-23.1
		c3.9-5.8,8.8-12.9,12.6-33.1c1.8-9.8,7.5-12.5,11.2-14.3c4-1.9,8.2-3.9,9.6-23.4c0-9.9-4.5-12.6-4.6-12.7c-2.4-1.4-3.9-4.3-3.4-7
		c3.2-17.2,8.5-70.9-8.8-91.1c-11.8-13.8-30.5-14.1-34-14c-0.6-0.1-1.2-0.1-1.7-0.2c-1.7-0.4-4.5-1.9-5.4-3.4
		c-3.5-6-34.2-18.2-76.6-1c-41.9,16.9-42,53.3-36.5,86.6c1.8,12.4,3.7,23.1,3.8,23.2c0.5,2.9-1,5.8-3.7,7l0,0c0,0-4.4,2.7-4.4,13.1
		c1.5,18.9,5.6,20.9,9.6,22.9c3.7,1.8,9.4,4.5,11.2,14.3c3.7,20.2,8.6,27.4,12.6,33.1c3.8,5.6,7.4,10.9,7.4,23.1
		C208.9,389.5,194.8,408.1,149.8,426.6z"/>
</g>
</svg>
