<?xml version="1.0" encoding="utf-8"?>
<!-- Generator: Adobe Illustrator 21.0.0, SVG Export Plug-In . SVG Version: 6.00 Build 0)  -->
<svg version="1.1" id="Layer_1" xmlns="http://www.w3.org/2000/svg" xmlns:xlink="http://www.w3.org/1999/xlink" x="0px" y="0px"
	 viewBox="0 0 42 42" style="enable-background:new 0 0 42 42;" xml:space="preserve">
<style type="text/css">
	.st0{fill:#0077B7;}
</style>
<path class="st0" d="M38.2,0H3.8C1.7,0,0,1.7,0,3.8v34.4C0,40.3,1.7,42,3.8,42h34.4c2.1,0,3.8-1.7,3.8-3.8V3.8C42,1.7,40.3,0,38.2,0
	z M13,36.3c0,0.6-0.5,1.1-1.1,1.1H7.2c-0.6,0-1.1-0.5-1.1-1.1V16.5c0-0.6,0.5-1.1,1.1-1.1h4.7c0.6,0,1.1,0.5,1.1,1.1V36.3z
	 M9.5,13.6c-2.5,0-4.5-2-4.5-4.5s2-4.5,4.5-4.5s4.5,2,4.5,4.5S12,13.6,9.5,13.6z M37.6,36.4c0,0.6-0.5,1-1,1h-5.1c-0.6,0-1-0.5-1-1
	v-9.3c0-1.4,0.4-6-3.6-6c-3.1,0-3.7,3.2-3.9,4.6v10.7c0,0.6-0.5,1-1,1h-4.9c-0.6,0-1-0.5-1-1V16.4c0-0.6,0.5-1,1-1H22
	c0.6,0,1,0.5,1,1v1.7c1.2-1.7,2.9-3.1,6.5-3.1c8.1,0,8,7.6,8,11.7V36.4L37.6,36.4z"/>
</svg>
