<?xml version="1.0" encoding="iso-8859-1"?>
<!-- Generator: Adobe Illustrator 19.0.0, SVG Export Plug-In . SVG Version: 6.00 Build 0)  -->
<svg xmlns="http://www.w3.org/2000/svg"  version="1.1" id="Capa_1" x="0px" y="0px" viewBox="0 0 512 512" style="enable-background:new 0 0 512 512;" xml:space="preserve" width="512px" height="512px">
<g>
	<g>
		<path d="M467,28.355H45c-24.813,0-45,20.187-45,45v278.273c0,24.813,20.187,45,45,45h151.494v57.016h-22.587    c-8.284,0-15,6.716-15,15s6.716,15,15,15h164.187c8.284,0,15-6.716,15-15s-6.716-15-15-15h-22.587v-57.016H467    c24.813,0,45-20.187,45-45V73.355C512,48.542,491.813,28.355,467,28.355z M285.506,453.645h-59.012v-57.016h59.012V453.645z     M482,351.629c0,8.271-6.729,15-15,15H45c-8.271,0-15-6.729-15-15v-22.803h452V351.629z M482,298.826H30V73.355    c0-8.271,6.729-15,15-15h422c8.271,0,15,6.729,15,15V298.826z" fill="#FFFFFF"/>
	</g>
</g>
<g>
	<g>
		<path d="M435.562,120.582H304.459c-8.284,0-15,6.716-15,15s6.716,15,15,15h131.103c8.284,0,15-6.716,15-15    S443.846,120.582,435.562,120.582z" fill="#FFFFFF"/>
	</g>
</g>
<g>
	<g>
		<path d="M435.562,167.49H304.459c-8.284,0-15,6.716-15,15s6.716,15,15,15h131.103c8.284,0,15-6.716,15-15    S443.846,167.49,435.562,167.49z" fill="#FFFFFF"/>
	</g>
</g>
<g>
	<g>
		<path d="M435.562,214.399H304.459c-8.284,0-15,6.716-15,15s6.716,15,15,15h131.103c8.284,0,15-6.716,15-15    S443.846,214.399,435.562,214.399z" fill="#FFFFFF"/>
	</g>
</g>
<g>
	<g>
		<path d="M242.913,116.006H76.438c-8.284,0-15,6.716-15,15v102.97c0,8.284,6.716,15,15,15h166.475c8.284,0,15-6.716,15-15v-102.97    C257.913,122.722,251.197,116.006,242.913,116.006z M227.913,218.975H91.438v-72.97h136.475V218.975z" fill="#FFFFFF"/>
	</g>
</g>
<g>
</g>
<g>
</g>
<g>
</g>
<g>
</g>
<g>
</g>
<g>
</g>
<g>
</g>
<g>
</g>
<g>
</g>
<g>
</g>
<g>
</g>
<g>
</g>
<g>
</g>
<g>
</g>
<g>
</g>
</svg>
