<?xml version="1.0" encoding="utf-8"?>
<!-- Generator: Adobe Illustrator 21.0.0, SVG Export Plug-In . SVG Version: 6.00 Build 0)  -->
<svg version="1.1" id="Layer_1" xmlns="http://www.w3.org/2000/svg"  x="0px" y="0px"
	 viewBox="0 0 512 512" style="enable-background:new 0 0 512 512;" xml:space="preserve">
<style type="text/css">
	.st0{fill:#FFFFFF;}
</style>
<g>
	<path class="st0" d="M365.9,0H146.1c-28.4,0-51.5,23.1-51.5,51.5v408.9c0,28.4,23.1,51.5,51.5,51.5h219.9
		c28.4,0,51.5-23.1,51.5-51.5V51.5C417.5,23.1,394.4,0,365.9,0z M146.1,23.7h219.9c15.3,0,27.8,12.5,27.8,27.8V63H118.2V51.5
		C118.2,36.2,130.7,23.7,146.1,23.7z M393.8,86.7v336H118.2v-336H393.8z M365.9,488.3H146.1c-15.4,0-27.8-12.5-27.8-27.8v-14.1
		h275.6v14.1C393.8,475.8,381.3,488.3,365.9,488.3z"/>
	<path class="st0" d="M256,456.8c-3.1,0-6.2,1.3-8.4,3.5c-2.2,2.2-3.5,5.3-3.5,8.4s1.3,6.2,3.5,8.4c2.2,2.2,5.3,3.5,8.4,3.5
		c3.1,0,6.2-1.3,8.4-3.5c2.2-2.2,3.5-5.3,3.5-8.4s-1.3-6.2-3.5-8.4C262.2,458.1,259.1,456.8,256,456.8z"/>
	<path class="st0" d="M165.2,255.6l36.9,36.9c2.3,2.3,5.3,3.5,8.4,3.5c3,0,6.1-1.2,8.4-3.5c4.6-4.6,4.6-12.1,0-16.8l-28.5-28.5
		l28.5-28.5c4.6-4.6,4.6-12.1,0-16.8c-4.6-4.6-12.1-4.6-16.8,0l-36.9,36.9c-2.2,2.2-3.5,5.2-3.5,8.4
		C161.7,250.4,163,253.4,165.2,255.6L165.2,255.6z"/>
	<path class="st0" d="M293.2,292.5c2.3,2.3,5.3,3.5,8.4,3.5c3,0,6.1-1.2,8.4-3.5l36.9-36.9c2.2-2.2,3.5-5.2,3.5-8.4
		c0-3.1-1.2-6.2-3.5-8.4L309.9,202c-4.6-4.6-12.1-4.6-16.8,0c-4.6,4.6-4.6,12.1,0,16.8l28.5,28.5l-28.5,28.5
		C288.6,280.3,288.6,287.8,293.2,292.5L293.2,292.5z"/>
	<path class="st0" d="M239,325.2c0.8,0.2,1.5,0.2,2.3,0.2c5.6,0,10.5-3.9,11.6-9.6L279,183.1c1.3-6.4-2.9-12.7-9.3-13.9
		c-6.4-1.3-12.7,2.9-13.9,9.3l-26.1,132.7C228.4,317.7,232.5,324,239,325.2L239,325.2z"/>
</g>
</svg>
