<?xml version="1.0" encoding="utf-8"?>
<!-- Generator: Adobe Illustrator 21.0.0, SVG Export Plug-In . SVG Version: 6.00 Build 0)  -->
<svg version="1.1" id="Capa_1" xmlns="http://www.w3.org/2000/svg"  x="0px" y="0px"
	 viewBox="0 0 121 100.3" style="enable-background:new 0 0 121 100.3;" xml:space="preserve">
<style type="text/css">
	.st0{fill:#FFFFFF;}
</style>
<g>
	<g>
		<path class="st0" d="M30.5,10.3c-3.2,0-5.7,2.5-5.7,5.7s2.5,5.7,5.7,5.7s5.7-2.5,5.7-5.7S33.7,10.3,30.5,10.3z M30.5,19.1
			c-1.8,0-3.2-1.4-3.2-3.2c0-1.8,1.4-3.2,3.2-3.2s3.2,1.4,3.2,3.2C33.7,17.7,32.3,19.1,30.5,19.1z"/>
		<circle class="st0" cx="80.3" cy="14.1" r="1.3"/>
		<circle class="st0" cx="75.3" cy="14.1" r="1.3"/>
		<circle class="st0" cx="82.8" cy="17.8" r="1.3"/>
		<circle class="st0" cx="77.8" cy="17.8" r="1.3"/>
		<circle class="st0" cx="70.2" cy="14.1" r="1.3"/>
		<circle class="st0" cx="72.7" cy="17.8" r="1.3"/>
		<circle class="st0" cx="65.2" cy="14.1" r="1.3"/>
		<circle class="st0" cx="67.7" cy="17.8" r="1.3"/>
		<circle class="st0" cx="60.1" cy="14.1" r="1.3"/>
		<circle class="st0" cx="62.7" cy="17.8" r="1.3"/>
		<path class="st0" d="M92.9,23.4V8.5c0-3.2-2.6-5.8-5.8-5.8h-64c-3.2,0-5.8,2.6-5.8,5.8v14.9c0,1.9,0.9,3.5,2.3,4.5
			c-1.4,1-2.3,2.6-2.3,4.5v14.9c0,1.9,0.9,3.5,2.3,4.5c-1.4,1-2.3,2.6-2.3,4.5v14.9c0,3.2,2.6,5.8,5.8,5.8h35.8v-2.5H23.1
			c-1.8,0-3.3-1.5-3.3-3.3V56.4c0-1.8,1.5-3.3,3.3-3.3h29.5v-2.5H23.1c-1.8,0-3.3-1.5-3.3-3.3V32.5c0-1.8,1.5-3.3,3.3-3.3h64
			c1.8,0,3.3,1.5,3.3,3.3v14.4h2.5V32.5c0-1.9-0.9-3.5-2.3-4.5C92,26.9,92.9,25.3,92.9,23.4z M23.1,26.7c-1.8,0-3.3-1.5-3.3-3.3V8.5
			c0-1.8,1.5-3.3,3.3-3.3h64c1.8,0,3.3,1.5,3.3,3.3v14.9c0,1.8-1.5,3.3-3.3,3.3H23.1z"/>
		<path class="st0" d="M24.8,39.9c0,3.2,2.5,5.7,5.7,5.7s5.7-2.5,5.7-5.7c0-3.2-2.5-5.7-5.7-5.7C27.5,34.2,24.8,36.7,24.8,39.9z
			 M33.7,39.9c0,1.8-1.4,3.2-3.2,3.2s-3.2-1.4-3.2-3.2c0-1.8,1.4-3.2,3.2-3.2S33.7,38.1,33.7,39.9z"/>
		<circle class="st0" cx="80.3" cy="38" r="1.3"/>
		<circle class="st0" cx="75.3" cy="38" r="1.3"/>
		<circle class="st0" cx="82.8" cy="41.8" r="1.3"/>
		<circle class="st0" cx="77.8" cy="41.8" r="1.3"/>
		<circle class="st0" cx="70.2" cy="38" r="1.3"/>
		<circle class="st0" cx="72.7" cy="41.8" r="1.3"/>
		<circle class="st0" cx="65.2" cy="38" r="1.3"/>
		<circle class="st0" cx="67.7" cy="41.8" r="1.3"/>
		<circle class="st0" cx="60.1" cy="38" r="1.3"/>
		<circle class="st0" cx="62.7" cy="41.8" r="1.3"/>
		<path class="st0" d="M24.8,63.9c0,3.2,2.5,5.7,5.7,5.7s5.7-2.5,5.7-5.7s-2.5-5.7-5.7-5.7C27.5,58.2,24.8,60.7,24.8,63.9z
			 M33.7,63.9c0,1.8-1.4,3.2-3.2,3.2s-3.2-1.4-3.2-3.2c0-1.8,1.4-3.2,3.2-3.2S33.7,62.1,33.7,63.9z"/>
	</g>
	<g>
		<path class="st0" d="M109,74.7l-1.9-0.8c0.1-1.5,0-3-0.1-4.5c-0.3-1.5-0.5-3-1-4.4l1.6-1.3c0.5-0.4,0.9-1,0.9-1.6
			c0.1-0.6-0.1-1.3-0.5-1.8l-6.1-7.8c-0.4-0.5-1-0.9-1.6-0.9c-0.6-0.1-1.3,0.1-1.8,0.5l-1.6,1.3c-2.5-1.6-5.4-2.9-8.4-3.4l-0.3-2
			c-0.1-1.4-1.4-2.3-2.8-2l-9.8,1.4c-1.4,0.1-2.3,1.4-2,2.8l0.3,2c-2.6,1.4-5.2,3.3-7.2,5.5l-1.9-1.3c-0.6-0.3-1.3-0.3-1.9,0
			c-0.6,0.3-1,0.8-1.3,1.3l-3.8,9.2c-0.3,0.6-0.3,1.3,0,1.9c0.3,0.6,0.8,1,1.3,1.3l1.9,0.8c-0.1,1.5,0,3,0.1,4.5
			c0.3,1.5,0.5,3,1,4.4L60.5,81c-1,0.8-1.3,2.4-0.4,3.4l6.1,7.8c0.8,1,2.4,1.3,3.4,0.4l1.6-1.3c2.5,1.6,5.4,2.9,8.4,3.4l0.3,2
			c0.1,1.4,1.4,2.3,2.8,2l9.8-1.4c1.4-0.1,2.3-1.4,2-2.8l-0.3-2c2.6-1.4,5.2-3.3,7.2-5.5l1.9,0.8c1.3,0.5,2.6-0.1,3.2-1.3l3.8-9.2
			C110.9,76.6,110.3,75.2,109,74.7z M108.9,77.2l-3.8,9.2c-0.1,0.5-0.8,0.6-1.1,0.5l-2.5-1c-0.3-0.1-0.6,0-0.9,0.3
			c-2,2.5-4.7,4.5-7.6,5.8c-0.3,0.1-0.5,0.5-0.4,0.8l0.4,2.6c0.1,0.5-0.3,0.9-0.8,1l-9.8,1.4c-0.5,0.1-0.9-0.3-1-0.8l-0.3-2.8
			c0-0.4-0.3-0.6-0.6-0.6c-3.2-0.5-6.2-1.8-8.8-3.7c-0.1-0.1-0.4-0.1-0.5-0.1c-0.1,0-0.3,0.1-0.4,0.1l-2.1,1.6
			c-0.4,0.3-0.9,0.3-1.3-0.1l-6.1-7.8c-0.3-0.4-0.3-0.9,0.1-1.3l2.1-1.6c0.3-0.3,0.4-0.5,0.3-0.9c-0.5-1.5-1-3-1.1-4.7
			c-0.3-1.5-0.3-3.2-0.1-4.8c0-0.4-0.1-0.6-0.5-0.8l-2.5-1c-0.3-0.1-0.4-0.3-0.5-0.5c-0.1-0.3-0.1-0.5,0-0.6l3.8-9.2
			c0.1-0.3,0.3-0.4,0.5-0.5c0.3-0.1,0.5-0.1,0.6,0l2.5,1c0.3,0.1,0.6,0,0.9-0.3c2-2.5,4.7-4.5,7.6-5.8c0.3-0.1,0.5-0.5,0.4-0.8
			L75,49.4c-0.1-0.5,0.3-0.9,0.8-1l9.8-1.4c0.5-0.1,0.9,0.3,1,0.8l0.4,2.6c0,0.4,0.3,0.6,0.6,0.6c3.2,0.5,6.2,1.8,8.8,3.7
			c0.3,0.3,0.6,0.1,0.9,0l2.1-1.6c0.1-0.1,0.4-0.3,0.6-0.1c0.3,0,0.4,0.1,0.6,0.4l6.1,7.8c0.1,0.1,0.3,0.4,0.1,0.6
			c0,0.3-0.1,0.4-0.4,0.6l-2.1,1.6c-0.3,0.3-0.4,0.5-0.3,0.9c0.5,1.5,1,3,1.1,4.7c0.3,1.5,0.3,3.2,0.1,4.8c0,0.4,0.1,0.6,0.5,0.8
			l2.5,1C108.9,76.2,109.2,76.7,108.9,77.2z"/>
		<path class="st0" d="M84.1,56.8c-8.6,0-15.6,7.1-15.6,15.6s7.1,15.6,15.6,15.6S99.7,81,99.7,72.4C99.7,63.7,92.8,56.8,84.1,56.8z
			 M84.1,86.4c-7.8,0-14.1-6.3-14.1-14.1s6.3-14.1,14.1-14.1s14.1,6.3,14.1,14.1S91.9,86.4,84.1,86.4z"/>
		<path class="st0" d="M87,68.3h-2.9c-0.4,0-0.8,0.4-0.8,0.8v6.6c0,0.4,0.4,0.8,0.8,0.8s0.8-0.4,0.8-0.8v-1.8H87
			c1.5,0,2.9-1.3,2.9-2.9C89.9,69.3,88.6,68.3,87,68.3z M87,72.4h-2.1v-2.5H87c0.8,0,1.3,0.6,1.3,1.3C88.2,71.8,87.7,72.4,87,72.4z"
			/>
		<path class="st0" d="M79.9,68.8c-0.1-0.3-0.4-0.5-0.8-0.5h-0.9c-0.4,0-0.6,0.3-0.8,0.5L75,75.3c-0.1,0.4,0,0.9,0.5,1
			c0.5,0.1,0.9,0,1-0.5l0.4-1.1h3.5l0.4,1.1c0.1,0.3,0.4,0.5,0.8,0.5c0.1,0,0.1,0,0.3,0c0.4-0.1,0.6-0.6,0.5-1L79.9,68.8z
			 M77.7,73.3l1.1-3l1.1,3H77.7z"/>
		<path class="st0" d="M91.5,68.3c-0.4,0-0.8,0.4-0.8,0.8v6.6c0,0.4,0.4,0.8,0.8,0.8s0.8-0.4,0.8-0.8V69
			C92.3,68.6,92,68.3,91.5,68.3z"/>
		<path class="st0" d="M89.6,55c0.5,0.1,1.1,0.4,1.6,0.6c0.1,0,0.3,0,0.3,0c0.3,0,0.6-0.1,0.8-0.5c0.1-0.4,0-0.9-0.4-1
			c-0.5-0.3-1.1-0.5-1.8-0.6c-0.4-0.1-0.9,0.1-1,0.5C89,54.5,89.3,54.9,89.6,55z"/>
		<path class="st0" d="M68.1,81.1c-0.3-0.4-0.6-0.5-1-0.3c-0.4,0.3-0.5,0.6-0.3,1c0.4,0.6,0.6,1.1,1,1.8c0.1,0.3,0.4,0.4,0.6,0.4
			c0.1,0,0.3,0,0.4-0.1c0.4-0.3,0.5-0.8,0.3-1.1C68.7,82.1,68.5,81.6,68.1,81.1z"/>
		<path class="st0" d="M82.6,90.6c-4.2-0.4-8.1-2.1-11.1-5c-0.3-0.3-0.8-0.3-1.1,0c-0.3,0.3-0.3,0.8,0,1.1c3.3,3.2,7.6,5,12,5.5
			c0,0,0,0,0.1,0c0.4,0,0.8-0.3,0.8-0.8C83.3,91,83,90.6,82.6,90.6z"/>
		<path class="st0" d="M95.3,56c-0.4-0.3-0.9-0.1-1.1,0.3c-0.3,0.4-0.1,0.9,0.3,1.1c3.7,2.4,6.2,6.1,7.3,10.3
			c0.1,0.4,0.4,0.6,0.8,0.6c0.1,0,0.1,0,0.3,0c0.4-0.1,0.6-0.5,0.5-1C102,62.7,99.2,58.7,95.3,56z"/>
	</g>
</g>
</svg>
