<?xml version="1.0" encoding="utf-8"?>
<!-- Generator: Adobe Illustrator 21.0.0, SVG Export Plug-In . SVG Version: 6.00 Build 0)  -->
<svg version="1.1" id="Layer_1" xmlns="http://www.w3.org/2000/svg" xmlns:xlink="http://www.w3.org/1999/xlink" x="0px" y="0px"
	 viewBox="0 0 42 42" style="enable-background:new 0 0 42 42;" xml:space="preserve">
<style type="text/css">
	.st0{fill:#76A9EA;}
</style>
<path class="st0" d="M41.3,7.6c-0.9,0.4-1.9,0.7-2.9,1c1.1-1,1.9-2.3,2.4-3.8l0,0C41,4.4,40.5,4,40.1,4.2l0,0
	c-1.4,0.8-2.9,1.4-4.4,1.8c-0.1,0-0.2,0-0.3,0c-0.3,0-0.6-0.1-0.8-0.3c-1.7-1.5-3.8-2.3-6-2.3c-1,0-1.9,0.1-2.9,0.4
	c-2.9,0.9-5.2,3.3-5.9,6.3c-0.3,1.1-0.3,2.2-0.2,3.3c0,0.1,0,0.2-0.1,0.3C19.5,14,19.4,14,19.3,14c0,0,0,0,0,0
	C12.9,13.4,7.1,10.3,3,5.3l0,0C2.8,5,2.4,5.1,2.2,5.3l0,0C1.4,6.7,1,8.3,1,9.9c0,2.5,1,4.8,2.7,6.5c-0.7-0.2-1.4-0.4-2.1-0.8l0,0
	c-0.3-0.2-0.7,0-0.7,0.4l0,0c0,3.6,2.1,6.9,5.3,8.4c-0.1,0-0.1,0-0.2,0c-0.5,0-1,0-1.5-0.1l0,0c-0.4-0.1-0.6,0.3-0.5,0.6l0,0
	c1,3.2,3.8,5.6,7.2,6.2c-2.8,1.9-6,2.8-9.4,2.8l-1,0c-0.3,0-0.6,0.2-0.7,0.5c-0.1,0.3,0.1,0.6,0.3,0.8c3.8,2.2,8.1,3.4,12.5,3.4
	c3.8,0,7.4-0.8,10.7-2.3c3-1.4,5.6-3.3,7.8-5.9c2.1-2.3,3.7-5,4.8-8c1.1-2.8,1.6-5.9,1.6-8.8v-0.1c0-0.5,0.2-0.9,0.6-1.2
	c1.4-1.1,2.6-2.5,3.6-4l0,0C42.2,7.9,41.8,7.4,41.3,7.6L41.3,7.6z"/>
</svg>
